<svg width="60" height="41" viewBox="0 0 60 41" fill="none" xmlns="http://www.w3.org/2000/svg">
<path d="M19.217 16.9216H24.0747V40.1697H19.217V38.5366C17.16 40.1332 14.6354 40.9994 12.0374 41C5.4 41 0 35.4137 0 28.5462C0 21.6787 5.4 16.0925 12.0385 16.0925C14.726 16.0925 17.2121 17.0093 19.2158 18.5559L19.217 16.9216ZM19.217 28.5519C19.217 24.4542 15.9962 21.1196 12.0374 21.1196C8.07849 21.1196 4.85887 24.4542 4.85887 28.5519C4.85887 32.6519 8.07849 35.9855 12.0385 35.9855C15.9962 35.9855 19.217 32.6508 19.217 28.5519ZM32.6151 40.1709H27.7585V0H32.6162L32.6151 40.1709ZM35.3581 28.5462C35.3581 21.6787 40.7581 16.0925 47.3943 16.0925C54.0328 16.0925 59.4328 21.6787 59.4328 28.5462C59.4328 35.4137 54.034 41 47.3966 41C40.7581 41 35.3581 35.4137 35.3581 28.5462ZM40.2158 28.5519C40.2158 32.6508 43.4366 35.9843 47.3943 35.9843C51.3543 35.9843 54.574 32.6508 54.574 28.5519C54.574 24.4531 51.3543 21.1196 47.3943 21.1196C43.4366 21.1196 40.217 24.4531 40.217 28.5519H40.2158Z" fill="white"/>
</svg>
