<svg width="140" height="22" viewBox="0 0 140 22" fill="none" xmlns="http://www.w3.org/2000/svg">
<path fill-rule="evenodd" clip-rule="evenodd" d="M20.166 16.0291C20.166 16.0866 20.1085 16.144 20.1085 16.2015C18.327 19.5911 14.7642 21.9467 10.6841 21.9467C4.8226 21.9467 -0.0045166 17.0058 -0.0045166 10.9733C-0.0045166 4.94088 4.8226 0 10.6841 0C14.7642 0 18.327 2.35554 20.1085 5.86011C20.166 5.91756 20.166 5.97501 20.2234 6.03246C20.2234 6.03246 16.8329 8.5029 16.7755 8.5029C16.7755 8.44545 16.718 8.388 16.718 8.33055C15.7411 5.86011 13.385 4.25145 10.6841 4.25145C7.06377 4.3089 4.13302 7.23896 4.13302 10.9733C4.13302 14.7077 7.12123 17.6952 10.6841 17.6952C13.2701 17.6952 15.5687 16.0866 16.6031 13.7885C16.6605 13.731 16.6605 13.6161 16.718 13.5587L20.166 16.0291Z" fill="white"/>
<path fill-rule="evenodd" clip-rule="evenodd" d="M24.5944 0.145386H28.7319V7.84396H39.5355V0.145386H43.673V21.5175H39.5355V12.1529H28.7319V21.5175H24.5944V0.145386Z" fill="white"/>
<path fill-rule="evenodd" clip-rule="evenodd" d="M101.867 21.5175V0.145386H116.809V4.45429H106.005V8.70574H115.947V12.9572H106.005V17.2086H118.303V21.4601H101.867V21.5175Z" fill="white"/>
<path fill-rule="evenodd" clip-rule="evenodd" d="M124.179 21.5175V0.145386H128.374V17.2661H139.982V21.5175H124.179Z" fill="white"/>
<path fill-rule="evenodd" clip-rule="evenodd" d="M79.357 21.5175H79.2421H75.162V0.145386H75.4493H80.966L90.1031 13.0146V0.145386H94.2406V21.5175H90.9076L79.357 5.43098V21.5175Z" fill="white"/>
<path fill-rule="evenodd" clip-rule="evenodd" d="M59.4487 4.45429L55.7709 13.0146H63.2415L59.4487 4.45429ZM53.932 17.2661L51.9782 21.5175H47.0361L56.518 0.145386H62.322L71.8613 21.5175H66.9193L64.9654 17.2661H53.932Z" fill="white"/>
</svg>
