<svg width="140" height="23" viewBox="0 0 140 23" fill="none" xmlns="http://www.w3.org/2000/svg">
<path d="M5.67674 10.2393H10.7312V17.3458C10.7312 20.9367 8.86456 23 5.36557 23C1.86635 23 0 20.937 0 17.3458V5.65444C0 2.06298 1.86635 0 5.36557 0C8.86485 0 10.7312 2.06303 10.7312 5.65444V7.87052H7.30967V5.42542C7.30967 3.82121 6.60992 3.21002 5.44333 3.21002C4.27669 3.21002 3.57728 3.82121 3.57728 5.42542V17.575C3.57728 19.1795 4.27703 19.7913 5.44333 19.7913C6.60962 19.7913 7.30967 19.1794 7.30967 17.575V13.4486H5.67674V10.2393Z" fill="white"/>
<path d="M15.9414 15.3592L11.4309 0.30603H15.1636L17.8854 10.5453L20.6069 0.30603H24.1062L19.5183 15.3592V22.8473H15.9414V15.3592Z" fill="white"/>
<path d="M33.1268 16.2759L35.6152 0.306074H40.5919V22.771H37.1703V6.64846L34.682 22.7706H31.2605L28.6167 6.87718V22.7706H25.506V0.305786H30.4828L33.1268 16.2759Z" fill="white"/>
<path d="M48.0573 0.000305176C51.5566 0.000305176 53.3455 2.06329 53.3455 5.65475V6.3423H49.9233V5.42534C49.9233 3.82113 49.3013 3.20994 48.1347 3.20994C46.9684 3.20994 46.3464 3.82113 46.3464 5.42534C46.3464 10.0865 53.3452 10.9271 53.3452 17.3458C53.3452 20.9367 51.4786 22.9999 47.9793 22.9999C44.4801 22.9999 42.6137 20.9369 42.6137 17.3458V15.97H46.0353V17.5748C46.0353 19.1791 46.7353 19.7909 47.9019 19.7909C49.0685 19.7909 49.7679 19.1791 49.7679 17.5748C49.7679 12.9137 42.7694 12.0728 42.7694 5.65437C42.7694 2.06329 44.5577 0.000305176 48.0573 0.000305176Z" fill="white"/>
<path d="M59.0216 22.771H55.4449V0.30603H59.0216V9.93382H63.1432V0.30603H66.7982V22.771H63.1432V13.1432H59.0216V22.771Z" fill="white"/>
<path d="M81.0287 22.771H77.3737L76.7517 18.7209H72.3193L71.6973 22.771H68.4312L72.0858 0.30603H77.3734L81.0287 22.771ZM72.8632 15.6647H76.3628L74.6519 4.27904L72.8632 15.6647Z" fill="white"/>
<path d="M90.2047 22.771C89.9715 22.1591 89.8938 21.8542 89.8938 20.0207V16.5055C89.8938 14.4425 89.1934 13.6789 87.5608 13.6789H86.3168V22.8482H82.7402V0.306702H88.1828C91.9155 0.306702 93.5488 1.98761 93.5488 5.50301V7.25993C93.5488 9.55237 92.7707 11.0805 91.2158 11.845C93.0038 12.609 93.6258 14.2908 93.6258 16.6595V20.0976C93.6258 21.1677 93.6258 22.0079 94.015 22.8482H90.2043L90.2048 22.771H90.2047ZM86.3162 3.51508V10.392H87.7163C89.038 10.392 89.8938 9.78043 89.8938 8.02321V5.80718C89.8938 4.20239 89.3489 3.51475 88.0278 3.51475L86.3162 3.51523V3.51508Z" fill="white"/>
<path d="M100.547 13.8307L99.4584 15.8937V22.7706H95.8818V0.30542H99.4584V10.0859L104.202 0.30542H107.779L102.802 10.3153L107.779 22.7706H104.047L100.547 13.8307Z" fill="white"/>
<path d="M110.112 0.382446C120.066 0.382446 130.02 0.382446 139.973 0.382446C139.973 0.382446 126.287 15.3593 119.366 22.771C119.366 22.771 119.91 21.6255 120.222 21.1667C119.91 21.1667 119.599 19.9444 119.211 19.3322C118.822 19.5619 118.433 19.7146 118.044 19.8673C117.656 20.0967 117.422 20.0207 117.189 19.5628C117.034 19.1804 116.878 18.7218 116.644 18.3402C116.256 18.4929 115.322 19.0283 115.167 19.0283L110.345 17.0411C110.423 17.0411 112.756 16.9653 113.766 17.0411L115.322 18.3407C115.711 17.9593 116.022 17.3477 116.333 17.0411H117.188C117.499 17.347 117.81 17.882 118.121 18.2637C118.51 17.8819 118.976 17.4234 119.288 17.118H119.91C120.221 17.4234 120.61 17.8819 120.921 18.1873C120.921 18.1873 120.999 18.1873 121.075 18.2637C121.075 18.2637 121.698 17.5762 121.931 17.2707H122.631C122.631 17.2707 131.418 4.28025 131.496 4.12783C124.42 2.82755 110.112 0.382446 110.112 0.382446Z" fill="white"/>
<path d="M118.822 8.09993L113.922 5.42542C116.799 6.11296 119.755 6.80085 122.631 7.41238L118.822 8.09993Z" fill="white"/>
</svg>
