<svg width="180" height="19" viewBox="0 0 180 19" fill="none" xmlns="http://www.w3.org/2000/svg">
<path d="M178.691 0.33073H176.42L176.089 0.702749V11.6152L164.485 0L164.154 0.33073V17.9399L164.485 18.2706H166.756L167.128 17.9399V6.86191L178.526 18.2706H179.063V0.702749L178.691 0.33073ZM121.371 0.702749V3.34817H124.344V18.2706H127.318V3.34775H129.961L130.333 2.97573V0.33073H121.701L121.371 0.702749ZM132.315 0.702749V3.34817H135.288V18.2706H138.261V3.34775H140.904L141.235 2.97573V0.33073H132.645L132.315 0.702749ZM2.97333 0.33073H0.330417L0 0.702749V18.2706H8.96125V15.2945H2.97375L2.97333 0.33073ZM19.905 0.33073C18.1327 0.330812 16.4001 0.856949 14.9265 1.84261C13.4529 2.82827 12.3044 4.22918 11.6262 5.86819C10.948 7.5072 10.7706 9.31071 11.1164 11.0506C11.4622 12.7906 12.3157 14.3888 13.569 15.6432C14.8223 16.8976 16.419 17.7518 18.1573 18.0979C19.8956 18.444 21.6974 18.2663 23.3348 17.5874C24.9723 16.9085 26.3718 15.7588 27.3565 14.2838C28.3411 12.8087 28.8667 11.0745 28.8667 9.30047C28.8667 8.12251 28.6349 6.95609 28.1845 5.86781C27.7341 4.77952 27.074 3.79068 26.2418 2.95776C25.4097 2.12484 24.4217 1.46414 23.3345 1.01339C22.2472 0.562644 21.0818 0.330675 19.905 0.33073ZM19.905 15.2532C18.7172 15.2614 17.5539 14.9158 16.5629 14.2603C15.5719 13.6049 14.798 12.6693 14.3397 11.5725C13.8814 10.4757 13.7593 9.26716 13.989 8.1007C14.2187 6.93423 14.7898 5.8625 15.6296 5.02178C16.4695 4.18107 17.5402 3.60936 18.7055 3.37937C19.8709 3.14937 21.0782 3.27149 22.1741 3.73017C23.2699 4.18886 24.2047 4.96339 24.8595 5.95528C25.5144 6.94717 25.8597 8.11159 25.8517 9.30047C25.8517 10.8791 25.2251 12.3931 24.1099 13.5094C22.9947 14.6257 21.4822 15.2528 19.905 15.2528V15.2532ZM152.22 0.330313C150.446 0.322139 148.709 0.841238 147.23 1.82185C145.751 2.80245 144.596 4.20044 143.911 5.83868C143.227 7.47693 143.043 9.28171 143.384 11.0244C143.725 12.767 144.575 14.3691 145.827 15.6277C147.079 16.8863 148.675 17.7448 150.415 18.0943C152.154 18.4438 153.958 18.2686 155.598 17.591C157.238 16.9134 158.64 15.7638 159.626 14.2879C160.613 12.8121 161.139 11.0763 161.14 9.30047C161.14 6.92869 160.201 4.65343 158.53 2.97246C156.858 1.29149 154.589 0.34123 152.22 0.330313ZM152.22 15.2528C151.032 15.2609 149.868 14.9153 148.877 14.2599C147.886 13.6045 147.113 12.6688 146.654 11.572C146.196 10.4751 146.074 9.2666 146.304 8.10013C146.533 6.93365 147.104 5.86191 147.944 5.02122C148.784 4.18052 149.855 3.60885 151.02 3.3789C152.186 3.14895 153.393 3.27112 154.489 3.72987C155.585 4.18862 156.52 4.96323 157.174 5.95517C157.829 6.94711 158.174 8.11158 158.166 9.30047C158.166 10.8791 157.54 12.3931 156.425 13.5094C155.309 14.6257 153.797 15.2528 152.22 15.2528ZM42.1225 0.330313L41.7921 0.661043V12.2762C41.7921 13.0655 41.4788 13.8225 40.9212 14.3807C40.3636 14.9388 39.6073 15.2524 38.8188 15.2524C38.0263 15.2524 37.2657 14.9402 36.7016 14.3832C36.1374 13.8262 35.815 13.0693 35.8042 12.2762V0.66146L35.4738 0.33073H33.1613L32.8308 0.66146V12.2766C32.7625 13.1026 32.8661 13.9337 33.135 14.7176C33.4039 15.5014 33.8322 16.2209 34.393 16.8307C34.9538 17.4404 35.6349 17.9271 36.3931 18.26C37.1514 18.5929 37.9704 18.7647 38.7983 18.7647C39.6263 18.7647 40.4453 18.5929 41.2036 18.26C41.9618 17.9271 42.6428 17.4404 43.2036 16.8307C43.7645 16.2209 44.1928 15.5014 44.4617 14.7176C44.7306 13.9337 44.8342 13.1026 44.7658 12.2766V0.66146L44.4354 0.33073L42.1225 0.330313ZM50.7125 0.702332V18.2702H53.3554L53.7271 17.9395V0.33073H51.0842L50.7125 0.702332ZM104.811 0.33073L104.439 0.66146V12.2766C104.439 13.066 104.126 13.8229 103.568 14.3811C103.011 14.9392 102.254 15.2528 101.466 15.2528C100.677 15.2528 99.921 14.9392 99.3634 14.3811C98.8058 13.8229 98.4925 13.066 98.4925 12.2766V0.66146L98.1208 0.33073H95.85L95.5192 0.66146V12.2766C95.4509 13.1026 95.5544 13.9337 95.8233 14.7176C96.0922 15.5014 96.5206 16.2209 97.0814 16.8307C97.6422 17.4404 98.3232 17.9271 99.0815 18.26C99.8397 18.5929 100.659 18.7647 101.487 18.7647C102.315 18.7647 103.134 18.5929 103.892 18.26C104.65 17.9271 105.331 17.4404 105.892 16.8307C106.453 16.2209 106.881 15.5014 107.15 14.7176C107.419 13.9337 107.522 13.1026 107.454 12.2766V0.66146L107.083 0.33073H104.811ZM113.401 0.702749V18.2706H116.044L116.374 17.9399V0.33073H113.731L113.401 0.702749ZM64.9183 7.93668C64.2375 7.57131 63.576 7.1711 62.9363 6.73763C62.2754 6.28303 61.9038 5.78673 61.945 5.00182C61.9761 4.48243 62.2017 3.99388 62.5768 3.6337C62.952 3.27351 63.449 3.06819 63.9688 3.05873C64.3875 3.05871 64.798 3.17454 65.1551 3.39342C65.5122 3.61231 65.8018 3.92574 65.9921 4.29907H66.5292L68.2633 2.56284C67.7744 1.87788 67.1303 1.31853 66.3839 0.930566C65.6374 0.542604 64.8098 0.337052 63.9688 0.33073C62.6523 0.287211 61.3683 0.745071 60.3758 1.61194C59.8642 2.07995 59.4538 2.64782 59.1696 3.28058C58.8855 3.91333 58.7338 4.5976 58.7238 5.29126C58.7238 7.19264 59.7563 8.7633 60.7475 9.30047L63.9271 11.1193C64.3954 11.3191 64.7794 11.6761 65.0131 12.1288C65.2468 12.5815 65.3156 13.1016 65.2075 13.5995C65.0694 14.1707 64.7195 14.6679 64.2287 14.9903C63.7379 15.3127 63.143 15.4362 62.5646 15.3358C61.8213 15.2532 61.0779 14.6743 60.7063 14.4266L59.9217 13.7647L57.6917 16.0794C58.5912 17.1937 59.8442 17.9668 61.2429 18.2706C61.8147 18.3795 62.3954 18.4348 62.9775 18.4358C64.4893 18.4141 65.9325 17.8006 66.9977 16.7266C68.063 15.6526 68.6655 14.2037 68.6763 12.6904C68.6763 9.67249 65.9921 8.51556 64.9183 7.93668ZM84.7408 11.2849L80.2396 0.33073H76.9771L84.4104 18.2706L84.7408 18.6009L85.1125 18.2706L92.5046 0.33073H89.2838L84.7408 11.2849Z" fill="white"/>
</svg>
