<svg width="108" height="24" viewBox="0 0 108 24" fill="none" xmlns="http://www.w3.org/2000/svg">
<path d="M87.751 5.3001C87.4519 8.50086 86.8378 11.6643 85.9177 14.7445C85.3357 16.7396 84.6984 18.7182 84.0066 20.6779C83.6732 21.6445 83.151 22.5334 82.1955 23.0334C80.7066 23.8112 79.0066 23.1001 78.351 21.4334C78.079 20.6989 77.8491 19.9496 77.6621 19.189C77.2746 17.7078 76.3946 16.4026 75.1669 15.4878C73.9392 14.5731 72.4367 14.1033 70.9066 14.1557C67.3177 14.1668 64.8621 15.8779 63.2177 18.9668C62.7177 19.9112 62.1844 20.8334 61.5844 21.7223C60.751 22.9445 59.5844 23.6223 58.051 23.4445C57.3417 23.3903 56.6742 23.0876 56.1661 22.5896C55.658 22.0917 55.3418 21.4304 55.2732 20.7223C55.0288 19.1223 55.2399 17.5445 55.5732 15.989C56.4621 11.889 57.3732 7.8001 58.2955 3.72232C58.8288 1.38898 60.2955 0.244539 62.6732 0.122317C65.4732 -0.0110163 67.3621 1.45565 68.9177 3.56676C69.3844 4.21121 69.851 4.86676 70.3955 5.45565C70.8589 5.99719 71.5156 6.33628 72.2254 6.40063C72.9353 6.46497 73.6422 6.24948 74.1955 5.8001C75.7955 4.62232 77.3732 3.42232 79.0066 2.30009C80.4105 1.21442 82.1216 0.600006 83.8955 0.544539C86.151 0.544539 87.5621 2.43343 87.751 4.34454C87.7844 4.65565 87.751 4.97787 87.751 5.3001ZM19.5066 20.2557C19.7955 18.7001 20.0621 17.1223 20.3955 15.5557C20.9844 12.7779 21.5621 9.98898 22.2844 7.24454C22.7036 5.24263 23.4992 3.33853 24.6288 1.63343C25.251 0.788984 26.0066 0.111206 27.1844 0.15565C27.951 0.200095 28.551 0.533428 29.0732 1.04454C29.5732 1.56676 30.0066 2.17787 30.5732 2.63343C31.8177 3.63343 33.651 3.54454 35.0732 2.52232C35.8177 1.98898 36.5177 1.40009 37.2955 0.922317C37.9882 0.510315 38.8141 0.384295 39.5982 0.570975C40.3822 0.757655 41.0628 1.24236 41.4955 1.92232C42.2066 3.02232 42.1066 4.14454 41.3844 5.18898C40.4955 6.5001 39.4955 7.74454 38.5844 9.03343C38.0158 9.75159 37.6707 10.6209 37.5917 11.5334C37.5126 12.4459 37.7033 13.3616 38.1399 14.1668C38.6621 15.2445 39.2177 16.3112 39.6732 17.4112C40.2955 18.9112 40.5621 20.4445 39.7621 21.9668C38.5844 24.2223 36.2066 24.6334 34.3621 22.8557C33.4732 22.0112 32.6621 21.0779 31.751 20.2334C30.3955 18.9668 28.9399 18.9779 27.5399 20.2334C26.5955 21.0779 25.7399 22.0112 24.7621 22.8223C24.395 23.1389 23.9594 23.3659 23.4896 23.4856C23.0198 23.6053 22.5287 23.6143 22.0548 23.512C21.581 23.4097 21.1373 23.1988 20.7588 22.896C20.3802 22.5931 20.0771 22.2066 19.8732 21.7668C19.651 21.3334 19.6288 20.8112 19.5066 20.2557ZM95.1732 23.9001C93.0621 23.9779 91.0066 23.8334 89.1844 22.6223C88.0844 21.9001 87.2844 20.9445 87.2177 19.5445C87.1844 18.9001 87.4621 18.289 88.0732 17.789C88.8646 17.1265 89.828 16.7027 90.851 16.5668C91.6177 16.4223 92.3844 16.2557 93.1288 16.0112C94.6732 15.489 95.0399 14.0112 93.9621 12.789C93.7177 12.5001 93.4399 12.2334 93.1732 11.9779C91.9732 10.7557 91.1177 9.37787 91.2066 7.61121C91.2288 6.94454 91.3955 6.22232 91.6955 5.61121C93.1177 2.71121 95.5288 1.06676 98.6621 0.333428C101.127 -0.274185 103.732 0.10877 105.918 1.40009C107.229 2.14454 107.873 3.37787 107.64 4.64454C107.451 5.72232 106.507 6.47787 105.195 6.56676C104.718 6.60009 104.229 6.56676 103.751 6.54454C103.362 6.52232 102.962 6.46676 102.751 6.87787C102.551 7.32232 102.662 7.74454 103.007 8.11121C103.629 8.8001 104.307 9.46676 104.84 10.2223C106.038 11.7188 106.601 13.6261 106.407 15.5334C106.125 17.6221 105.041 19.519 103.384 20.8223C101.431 22.4242 99.0747 23.4582 96.5732 23.8112C96.1177 23.8779 95.6399 23.8779 95.1732 23.9112V23.9001ZM12.9177 9.48545e-05C14.5066 0.0223171 16.251 0.444539 17.851 1.38898C20.1399 2.72232 20.2621 5.33343 18.0732 6.83343C17.3733 7.3001 16.6066 7.66676 15.8733 8.06676C14.6733 8.73343 14.4288 9.51121 15.0955 10.7223C15.3955 11.2334 15.7066 11.7557 16.0955 12.2112C17.9288 14.3445 17.5066 17.1334 16.0621 19.1779C14.4066 21.5112 12.0399 22.7557 9.35103 23.4779C7.57325 23.9445 5.78436 24.2223 3.96214 23.7779C3.15904 23.5805 2.41145 23.2027 1.77613 22.6733C1.14081 22.1439 0.634443 21.4767 0.295474 20.7223C-0.348971 19.4334 0.0732515 18.1223 1.43992 17.2445C2.46214 16.589 3.56214 16.0668 4.60658 15.4445C5.22881 15.0668 5.85103 14.6668 6.39547 14.2001C7.2177 13.489 7.25103 12.5668 6.59547 11.7001C6.15103 11.1112 5.69547 10.5445 5.28436 9.93343C4.60752 8.98847 4.2623 7.84615 4.30249 6.6845C4.34269 5.52284 4.76605 4.40712 5.50658 3.51121C6.38093 2.38679 7.507 1.48332 8.7942 0.873491C10.0814 0.263662 11.4938 -0.0354943 12.9177 9.48545e-05ZM50.4844 0.122317C53.1177 0.15565 54.7844 2.01121 54.4066 4.5001C54.0709 6.52795 53.667 8.54391 53.1955 10.5445C52.6399 13.0112 52.1066 15.4779 51.4177 17.9001C51.1342 19.0811 50.5772 20.179 49.7918 21.1053C49.0063 22.0317 48.0142 22.7606 46.8955 23.2334C45.1732 23.9557 43.5621 23.0112 43.3732 21.1557C43.2543 20.1349 43.2805 19.1024 43.451 18.089C43.8955 15.6223 44.451 13.1779 44.9844 10.7334C45.5066 8.35565 45.9844 5.97787 46.5844 3.62232C46.7844 2.83343 47.2288 2.06676 47.7177 1.40009C48.0332 0.967122 48.4538 0.621611 48.9398 0.396117C49.4257 0.170624 49.9611 0.0725739 50.4955 0.111206L50.4844 0.122317Z" fill="white"/>
</svg>
