<svg width="100" height="23" viewBox="0 0 100 23" fill="none" xmlns="http://www.w3.org/2000/svg">
<path fill-rule="evenodd" clip-rule="evenodd" d="M19.7192 19.3309C19.7192 20.8814 18.4071 22.1397 17.4193 22.1397H6.24766L20.2991 -0.000152791H1.51202V3.66882H2.47594C2.47594 2.11825 3.49197 0.863869 4.48375 0.863869H14.1355L0 22.9998H20.383V19.3309H19.7192ZM44.0981 21.2087L33.2264 -0.000203586L23.2629 21.2245C23.0869 21.6901 22.127 22.2777 20.767 22.2777V22.9958H26.071V22.2777C25.0868 22.2777 24.0311 21.7965 24.2869 21.2206L26.6828 16.0958H35.8745L38.4862 21.2087C38.7822 21.7254 37.4583 22.2819 36.0946 22.2819V22.9998H47.134L47.138 22.2819C45.466 22.2777 44.4459 21.7649 44.0981 21.2087ZM27.0828 15.2673L31.0586 6.65927L35.4985 15.2673H27.0828ZM48.4018 0.887438C50.0178 0.887438 51.3538 1.29781 51.3538 1.79489C51.3538 5.73993 51.3456 21.185 51.3538 21.185C51.3538 21.7137 50.0378 22.3016 48.4179 22.3016L48.4139 22.9958H59.2212V22.3488C57.6174 22.3488 56.3174 21.7176 56.3174 21.1889V0.694062H59.4334C62.4333 0.694062 64.865 3.15198 64.865 5.94108C64.865 8.73038 62.4333 10.9947 59.4294 10.9947H57.2734C57.2734 10.9947 64.5771 21.9028 64.5892 21.9028C64.8771 22.317 65.021 22.9997 65.021 22.9997H72.8965V22.3526C71.3804 22.3526 70.5887 21.7333 70.1488 21.1888L63.1172 12.1387C66.4931 11.9178 69.1047 9.22736 69.1047 6.03185C69.1047 2.69437 66.197 -0.000305176 62.6093 -0.000305176H48.4018V0.887438ZM96.9595 21.2087L86.0885 -0.000203586L76.1245 21.2245C75.9486 21.6901 74.9931 22.3016 73.629 22.3016V22.9959H78.9322V22.3488C77.9488 22.3488 76.8965 21.7965 77.1488 21.2206L79.5447 16.0958H88.7359L91.348 21.2087C91.6481 21.7254 90.3203 22.3055 88.9563 22.3055V22.9998H99.9958L99.9999 22.3291C98.3276 22.3291 97.3079 21.7649 96.9595 21.2087ZM79.9403 15.2673L83.9163 6.65927L88.3561 15.2673H79.9403Z" fill="white"/>
</svg>
